<svg width="32" height="32" viewBox="0 0 32 32" fill="none" xmlns="http://www.w3.org/2000/svg">
<path d="M27.4138 14.0852L17.4138 4.08516C17.0387 3.71037 16.5302 3.49984 16 3.49984C15.4698 3.49984 14.9613 3.71037 14.5863 4.08516L4.58626 14.0852C4.39964 14.2704 4.25171 14.4909 4.15107 14.7338C4.05042 14.9767 3.99908 15.2372 4.00001 15.5002V27.5002C4.00001 27.7654 4.10537 28.0197 4.29291 28.2073C4.48044 28.3948 4.7348 28.5002 5.00001 28.5002H13C13.2652 28.5002 13.5196 28.3948 13.7071 28.2073C13.8947 28.0197 14 27.7654 14 27.5002V20.5002H18V27.5002C18 27.7654 18.1054 28.0197 18.2929 28.2073C18.4804 28.3948 18.7348 28.5002 19 28.5002H27C27.2652 28.5002 27.5196 28.3948 27.7071 28.2073C27.8947 28.0197 28 27.7654 28 27.5002V15.5002C28.0009 15.2372 27.9496 14.9767 27.849 14.7338C27.7483 14.4909 27.6004 14.2704 27.4138 14.0852ZM26 26.5002H20V19.5002C20 19.2349 19.8947 18.9806 19.7071 18.7931C19.5196 18.6055 19.2652 18.5002 19 18.5002H13C12.7348 18.5002 12.4804 18.6055 12.2929 18.7931C12.1054 18.9806 12 19.2349 12 19.5002V26.5002H6.00001V15.5002L16 5.50016L26 15.5002V26.5002Z" fill="black"/>
</svg>
